<?xml version="1.0" encoding="UTF-8"?>
<svg xmlns="http://www.w3.org/2000/svg" xmlns:xlink="http://www.w3.org/1999/xlink" width="375pt" height="374.999991pt" viewBox="0 0 375 374.999991" version="1.2">
<defs>
<clipPath id="clip1">
  <path d="M 92 155 L 271 155 L 271 344.8125 L 92 344.8125 Z M 92 155 "/>
</clipPath>
<clipPath id="clip2">
  <path d="M 166 162 L 197 162 L 197 344.8125 L 166 344.8125 Z M 166 162 "/>
</clipPath>
</defs>
<g id="surface1">
<path style=" stroke:none;fill-rule:nonzero;fill:rgb(68.238831%,83.529663%,50.588989%);fill-opacity:1;" d="M 280.390625 237 L 256.269531 252.15625 C 256.269531 252.15625 264.308594 274.886719 280.390625 267.308594 C 296.472656 259.730469 280.390625 237 280.390625 237 Z M 280.390625 237 "/>
<path style=" stroke:none;fill-rule:nonzero;fill:rgb(100%,79.998779%,50.19989%);fill-opacity:1;" d="M 287.539062 230.839844 L 234.660156 245.992188 L 234.660156 162.640625 C 234.660156 162.640625 238.632812 161.441406 242.214844 162.640625 C 264.875 170.21875 287.539062 230.839844 287.539062 230.839844 Z M 287.539062 230.839844 "/>
<path style=" stroke:none;fill-rule:nonzero;fill:rgb(100%,79.998779%,50.19989%);fill-opacity:1;" d="M 76.023438 230.839844 L 128.902344 245.992188 L 128.902344 162.640625 C 128.902344 162.640625 124.929688 161.441406 121.347656 162.640625 C 98.6875 170.21875 76.023438 230.839844 76.023438 230.839844 Z M 76.023438 230.839844 "/>
<path style=" stroke:none;fill-rule:nonzero;fill:rgb(100%,71.759033%,30.198669%);fill-opacity:1;" d="M 288.707031 244.976562 L 251.496094 258.960938 C 247.160156 260.589844 242.335938 258.382812 240.710938 254.035156 L 235.988281 241.394531 C 234.363281 237.042969 236.5625 232.203125 240.898438 230.574219 L 278.109375 216.59375 C 282.445312 214.964844 287.273438 217.167969 288.898438 221.519531 L 293.617188 234.15625 C 295.234375 238.507812 293.035156 243.347656 288.707031 244.976562 Z M 288.707031 244.976562 "/>
<path style=" stroke:none;fill-rule:nonzero;fill:rgb(68.238831%,83.529663%,50.588989%);fill-opacity:1;" d="M 83.171875 237 L 107.292969 252.15625 C 107.292969 252.15625 99.253906 274.886719 83.171875 267.308594 C 67.089844 259.730469 83.171875 237 83.171875 237 Z M 83.171875 237 "/>
<path style=" stroke:none;fill-rule:nonzero;fill:rgb(100%,71.759033%,30.198669%);fill-opacity:1;" d="M 74.855469 244.976562 L 112.066406 258.960938 C 116.402344 260.589844 121.226562 258.382812 122.851562 254.035156 L 127.574219 241.394531 C 129.199219 237.042969 127 232.203125 122.664062 230.574219 L 85.453125 216.59375 C 81.117188 214.964844 76.289062 217.167969 74.664062 221.519531 L 69.945312 234.15625 C 68.328125 238.507812 70.527344 243.347656 74.855469 244.976562 Z M 74.855469 244.976562 "/>
<g clip-path="url(#clip1)" clip-rule="nonzero">
<path style=" stroke:none;fill-rule:nonzero;fill:rgb(100%,79.998779%,50.19989%);fill-opacity:1;" d="M 270.828125 317.035156 C 271.78125 324.347656 267.382812 331.320312 260.351562 333.464844 C 245.664062 337.949219 211.582031 344.503906 181.78125 344.503906 C 151.980469 344.503906 117.898438 337.949219 103.210938 333.464844 C 96.179688 331.3125 91.78125 324.347656 92.734375 317.035156 L 128.902344 155.0625 L 234.660156 155.0625 Z M 270.828125 317.035156 "/>
</g>
<path style=" stroke:none;fill-rule:nonzero;fill:rgb(100%,54.119873%,39.608765%);fill-opacity:1;" d="M 249.765625 86.863281 C 239.417969 86.863281 227.957031 88.9375 223.328125 98.230469 L 223.328125 128.539062 C 257.320312 132.328125 317.753906 86.863281 317.753906 86.863281 Z M 249.765625 86.863281 "/>
<path style=" stroke:none;fill-rule:nonzero;fill:rgb(68.238831%,83.529663%,50.588989%);fill-opacity:1;" d="M 227.332031 136.328125 C 225.675781 136.328125 224.0625 136.246094 222.488281 136.070312 L 224.160156 121.015625 C 242.363281 123.015625 271.921875 107.753906 293.164062 94.449219 L 249.765625 94.449219 C 239.085938 94.449219 232.460938 96.863281 230.089844 101.625 L 216.574219 94.839844 C 221.71875 84.511719 232.890625 79.285156 249.765625 79.285156 L 317.753906 79.285156 C 321.007812 79.285156 323.894531 81.367188 324.914062 84.46875 C 325.949219 87.558594 324.882812 90.96875 322.285156 92.925781 C 319.832031 94.773438 264.148438 136.328125 227.332031 136.328125 Z M 227.332031 136.328125 "/>
<path style=" stroke:none;fill-rule:nonzero;fill:rgb(100%,54.119873%,39.608765%);fill-opacity:1;" d="M 113.796875 86.863281 L 45.808594 86.863281 C 45.808594 86.863281 106.242188 132.328125 140.234375 128.539062 L 140.234375 98.230469 C 135.605469 88.9375 124.144531 86.863281 113.796875 86.863281 Z M 113.796875 86.863281 "/>
<path style=" stroke:none;fill-rule:nonzero;fill:rgb(68.238831%,83.529663%,50.588989%);fill-opacity:1;" d="M 136.230469 136.328125 C 99.414062 136.328125 43.730469 94.773438 41.285156 92.925781 C 38.679688 90.96875 37.613281 87.558594 38.648438 84.46875 C 39.675781 81.367188 42.554688 79.285156 45.808594 79.285156 L 113.796875 79.285156 C 130.671875 79.285156 141.84375 84.511719 146.996094 94.839844 L 133.480469 101.625 C 131.101562 96.855469 124.476562 94.441406 113.796875 94.441406 L 70.398438 94.441406 C 91.640625 107.746094 121.257812 123.023438 139.402344 121.007812 L 141.074219 136.0625 C 139.492188 136.246094 137.878906 136.328125 136.230469 136.328125 Z M 136.230469 136.328125 "/>
<path style=" stroke:none;fill-rule:nonzero;fill:rgb(68.238831%,83.529663%,50.588989%);fill-opacity:1;" d="M 181.78125 64.128906 C 143.9375 64.128906 121.347656 81.800781 121.347656 111.398438 C 121.347656 137.921875 140.628906 155.0625 170.449219 155.0625 L 193.113281 155.0625 C 222.933594 155.0625 242.214844 137.921875 242.214844 111.398438 C 242.214844 81.800781 219.625 64.128906 181.78125 64.128906 Z M 181.78125 64.128906 "/>
<path style=" stroke:none;fill-rule:nonzero;fill:rgb(48.629761%,70.199585%,25.878906%);fill-opacity:1;" d="M 189.335938 139.90625 C 189.335938 144.089844 185.949219 147.484375 181.78125 147.484375 C 177.613281 147.484375 174.226562 144.089844 174.226562 139.90625 Z M 189.335938 139.90625 "/>
<path style=" stroke:none;fill-rule:nonzero;fill:rgb(48.629761%,70.199585%,25.878906%);fill-opacity:1;" d="M 181.78125 110.171875 L 179.90625 109.09375 C 155.796875 95.265625 134.992188 108.824219 134.773438 108.957031 L 130.582031 102.652344 C 131.5625 102.003906 154.4375 87.082031 181.773438 101.488281 C 209.082031 87.082031 231.984375 102.003906 232.96875 102.652344 L 228.78125 108.964844 C 227.929688 108.398438 207.632812 95.339844 183.640625 109.09375 Z M 181.78125 110.171875 "/>
<g clip-path="url(#clip2)" clip-rule="nonzero">
<path style=" stroke:none;fill-rule:nonzero;fill:rgb(100%,71.759033%,30.198669%);fill-opacity:1;" d="M 196.890625 162.640625 L 196.890625 343.972656 C 191.753906 344.351562 186.691406 344.503906 181.78125 344.503906 C 176.871094 344.503906 171.808594 344.351562 166.671875 343.972656 L 166.671875 162.640625 Z M 196.890625 162.640625 "/>
</g>
<path style=" stroke:none;fill-rule:nonzero;fill:rgb(100%,71.759033%,30.198669%);fill-opacity:1;" d="M 240.535156 132.328125 C 227.527344 137.191406 223.75 155.0625 181.78125 155.0625 C 139.8125 155.0625 136.035156 137.191406 123.027344 132.328125 C 110.613281 127.683594 106.242188 155.0625 106.242188 170.21875 C 106.242188 191.648438 181.78125 192.949219 181.78125 192.949219 C 181.78125 192.949219 257.320312 191.648438 257.320312 170.21875 C 257.320312 155.0625 252.949219 127.683594 240.535156 132.328125 Z M 240.535156 132.328125 "/>
<path style=" stroke:none;fill-rule:nonzero;fill:rgb(24.308777%,15.289307%,13.729858%);fill-opacity:1;" d="M 174.226562 132.328125 C 174.226562 109.59375 144.011719 109.59375 136.457031 124.75 C 136.457031 132.328125 159.121094 147.484375 174.226562 132.328125 Z M 174.226562 132.328125 "/>
<path style=" stroke:none;fill-rule:nonzero;fill:rgb(24.308777%,15.289307%,13.729858%);fill-opacity:1;" d="M 189.335938 132.328125 C 189.335938 109.59375 219.550781 109.59375 227.105469 124.75 C 227.105469 132.328125 204.441406 147.484375 189.335938 132.328125 Z M 189.335938 132.328125 "/>
<path style=" stroke:none;fill-rule:nonzero;fill:rgb(100%,65.489197%,14.898682%);fill-opacity:1;" d="M 205.425781 185.070312 C 203.613281 187.570312 201.574219 189.917969 199.304688 192.039062 L 199.230469 192.039062 C 189.109375 192.796875 181.78125 192.949219 181.78125 192.949219 C 181.78125 192.949219 174.078125 192.796875 163.652344 191.964844 C 176.871094 190.070312 187.144531 184.613281 193.113281 176.203125 C 197.796875 169.6875 199.683594 161.578125 198.25 153.925781 C 204.140625 153.089844 208.898438 151.804688 212.902344 150.210938 C 215.398438 162.261719 212.675781 174.914062 205.425781 185.070312 Z M 205.425781 185.070312 "/>
<path style=" stroke:none;fill-rule:nonzero;fill:rgb(0%,0%,0%);fill-opacity:1;" d="M 166.671875 120.960938 C 166.671875 127.25 161.613281 132.328125 155.34375 132.328125 C 149.074219 132.328125 144.011719 127.25 144.011719 120.960938 C 144.011719 119.445312 144.3125 118.007812 144.84375 116.71875 C 151.339844 113.460938 159.648438 113.234375 165.84375 116.71875 C 166.371094 118.007812 166.671875 119.445312 166.671875 120.960938 Z M 166.671875 120.960938 "/>
<path style=" stroke:none;fill-rule:nonzero;fill:rgb(84.309387%,79.998779%,78.42865%);fill-opacity:1;" d="M 151.566406 120.960938 C 151.566406 121.464844 151.46875 121.949219 151.277344 122.410156 C 151.085938 122.875 150.8125 123.285156 150.460938 123.640625 C 150.105469 123.996094 149.695312 124.269531 149.234375 124.460938 C 148.769531 124.65625 148.289062 124.75 147.789062 124.75 C 147.289062 124.75 146.804688 124.65625 146.34375 124.460938 C 145.878906 124.269531 145.472656 123.996094 145.117188 123.640625 C 144.761719 123.285156 144.492188 122.875 144.296875 122.410156 C 144.105469 121.949219 144.011719 121.464844 144.011719 120.960938 C 144.011719 120.460938 144.105469 119.976562 144.296875 119.511719 C 144.492188 119.046875 144.761719 118.636719 145.117188 118.28125 C 145.472656 117.925781 145.878906 117.652344 146.34375 117.460938 C 146.804688 117.269531 147.289062 117.171875 147.789062 117.171875 C 148.289062 117.171875 148.769531 117.269531 149.234375 117.460938 C 149.695312 117.652344 150.105469 117.925781 150.460938 118.28125 C 150.8125 118.636719 151.085938 119.046875 151.277344 119.511719 C 151.46875 119.976562 151.566406 120.460938 151.566406 120.960938 Z M 151.566406 120.960938 "/>
<path style=" stroke:none;fill-rule:nonzero;fill:rgb(0%,0%,0%);fill-opacity:1;" d="M 219.550781 120.960938 C 219.550781 127.25 214.488281 132.328125 208.21875 132.328125 C 201.949219 132.328125 196.890625 127.25 196.890625 120.960938 C 196.890625 119.445312 197.191406 118.007812 197.71875 116.71875 C 203.914062 113.234375 212.222656 113.460938 218.71875 116.71875 C 219.25 118.007812 219.550781 119.445312 219.550781 120.960938 Z M 219.550781 120.960938 "/>
<path style=" stroke:none;fill-rule:nonzero;fill:rgb(84.309387%,79.998779%,78.42865%);fill-opacity:1;" d="M 204.441406 120.960938 C 204.441406 121.464844 204.347656 121.949219 204.15625 122.410156 C 203.964844 122.875 203.691406 123.285156 203.335938 123.640625 C 202.984375 123.996094 202.574219 124.269531 202.113281 124.460938 C 201.648438 124.65625 201.167969 124.75 200.667969 124.75 C 200.164062 124.75 199.683594 124.65625 199.222656 124.460938 C 198.757812 124.269531 198.351562 123.996094 197.996094 123.640625 C 197.640625 123.285156 197.367188 122.875 197.175781 122.410156 C 196.984375 121.949219 196.890625 121.464844 196.890625 120.960938 C 196.890625 120.460938 196.984375 119.976562 197.175781 119.511719 C 197.367188 119.046875 197.640625 118.636719 197.996094 118.28125 C 198.351562 117.925781 198.757812 117.652344 199.222656 117.460938 C 199.683594 117.269531 200.164062 117.171875 200.667969 117.171875 C 201.167969 117.171875 201.648438 117.269531 202.113281 117.460938 C 202.574219 117.652344 202.984375 117.925781 203.335938 118.28125 C 203.691406 118.636719 203.964844 119.046875 204.15625 119.511719 C 204.347656 119.976562 204.441406 120.460938 204.441406 120.960938 Z M 204.441406 120.960938 "/>
</g>
</svg>
