<?xml version="1.0" encoding="UTF-8"?>
<svg xmlns="http://www.w3.org/2000/svg" xmlns:xlink="http://www.w3.org/1999/xlink" width="375pt" height="374.999991pt" viewBox="0 0 375 374.999991" version="1.2">
<defs>
<clipPath id="clip1">
  <path d="M 103.84375 160 L 271.09375 160 L 271.09375 215.230469 L 103.84375 215.230469 Z M 103.84375 160 "/>
</clipPath>
</defs>
<g id="surface1">
<g clip-path="url(#clip1)" clip-rule="nonzero">
<path style=" stroke:none;fill-rule:nonzero;fill:rgb(76.469421%,87.838745%,89.7995%);fill-opacity:1;" d="M 271.097656 175.078125 C 270.046875 174.027344 268.996094 172.976562 267.941406 171.925781 C 267.214844 171.199219 266.488281 170.472656 265.761719 169.746094 C 265.511719 169.492188 265.261719 169.246094 265.011719 168.992188 C 264.953125 168.933594 264.757812 168.660156 264.667969 168.652344 C 264.570312 168.640625 264.128906 169.152344 264.050781 169.226562 C 263.75 169.503906 263.4375 169.769531 263.121094 170.019531 C 262.476562 170.535156 261.800781 171 261.09375 171.421875 C 259.730469 172.230469 258.261719 172.859375 256.734375 173.289062 C 253.765625 174.125 250.59375 174.1875 247.589844 173.476562 C 244.476562 172.738281 241.519531 171.160156 239.226562 168.921875 C 236.605469 166.359375 233.703125 164.238281 230.308594 162.800781 C 223.683594 160 216.042969 159.945312 209.375 162.652344 C 205.988281 164.023438 202.921875 166.082031 200.339844 168.65625 C 197.484375 171.503906 193.738281 173.34375 189.734375 173.84375 C 186 174.3125 182.09375 173.609375 178.792969 171.792969 C 177.246094 170.9375 175.832031 169.886719 174.582031 168.636719 C 173.257812 167.3125 171.800781 166.125 170.238281 165.097656 C 164.191406 161.132812 156.652344 159.746094 149.582031 161.25 C 146.03125 162.003906 142.644531 163.476562 139.667969 165.554688 C 138.15625 166.609375 136.859375 167.863281 135.519531 169.109375 C 134.339844 170.203125 133.019531 171.140625 131.597656 171.890625 C 126.003906 174.828125 119.085938 174.613281 113.691406 171.328125 C 113.003906 170.910156 112.347656 170.445312 111.722656 169.945312 C 111.421875 169.699219 111.128906 169.449219 110.84375 169.183594 C 110.746094 169.09375 110.367188 168.640625 110.269531 168.65625 C 110.171875 168.671875 109.96875 168.957031 109.902344 169.023438 C 109.648438 169.28125 109.390625 169.539062 109.132812 169.792969 C 107.675781 171.25 106.21875 172.707031 104.761719 174.164062 C 104.453125 174.46875 104.148438 174.773438 103.84375 175.078125 C 108.847656 180.078125 115.710938 182.972656 122.785156 183.0625 C 124.714844 183.085938 126.648438 182.910156 128.542969 182.527344 C 127.222656 189.078125 128.394531 195.914062 131.726562 201.695312 C 134.796875 207.015625 139.769531 211.183594 145.488281 213.386719 C 148.601562 214.589844 151.949219 215.210938 155.289062 215.210938 C 161.082031 215.195312 166.738281 213.335938 171.421875 209.933594 C 176.746094 206.0625 180.480469 200.242188 181.925781 193.839844 C 182.761719 190.136719 182.785156 186.25 182.035156 182.527344 C 185.605469 183.246094 189.335938 183.246094 192.90625 182.527344 C 191.589844 189.074219 192.75 195.917969 196.089844 201.695312 C 199.167969 207.011719 204.125 211.179688 209.847656 213.386719 C 212.964844 214.589844 216.3125 215.210938 219.652344 215.210938 C 225.457031 215.210938 231.15625 213.316406 235.835938 209.890625 C 241.109375 206.03125 244.816406 200.273438 246.269531 193.917969 C 247.121094 190.191406 247.152344 186.277344 246.394531 182.527344 C 253.214844 183.898438 260.449219 182.589844 266.335938 178.882812 C 268.0625 177.800781 269.65625 176.515625 271.097656 175.078125 Z M 173.453125 188.472656 C 173.234375 196.414062 167.628906 203.496094 159.929688 205.496094 C 152.308594 207.476562 143.890625 204.25 139.808594 197.449219 C 137.824219 194.140625 136.875 190.375 137.171875 186.511719 C 137.453125 182.910156 138.808594 179.421875 141.066406 176.597656 C 145.621094 170.894531 153.359375 168.417969 160.398438 170.472656 C 167.332031 172.492188 172.507812 178.648438 173.335938 185.820312 C 173.441406 186.699219 173.480469 187.585938 173.453125 188.472656 Z M 237.820312 188.472656 C 237.6875 192.476562 236.253906 196.140625 233.839844 199.308594 C 231.527344 202.34375 227.96875 204.546875 224.296875 205.496094 C 216.734375 207.457031 208.269531 204.292969 204.214844 197.511719 C 202.195312 194.136719 201.21875 190.316406 201.550781 186.378906 C 201.851562 182.796875 203.226562 179.34375 205.480469 176.542969 C 209.988281 170.9375 217.558594 168.488281 224.496094 170.394531 C 231.5625 172.335938 236.863281 178.542969 237.707031 185.820312 C 237.804688 186.699219 237.84375 187.585938 237.820312 188.472656 Z M 237.820312 188.472656 "/>
</g>
</g>
</svg>
