<?xml version="1.0" encoding="UTF-8"?>
<svg xmlns="http://www.w3.org/2000/svg" xmlns:xlink="http://www.w3.org/1999/xlink" width="375pt" height="374.999991pt" viewBox="0 0 375 374.999991" version="1.2">
<g id="surface1">
<path style=" stroke:none;fill-rule:nonzero;fill:rgb(29.019165%,67.83905%,66.668701%);fill-opacity:1;" d="M 327.195312 142.742188 C 326.476562 141.890625 325.488281 140.859375 324.507812 140.722656 C 321.472656 140.296875 318.808594 138.15625 315.273438 139.605469 C 313.214844 140.449219 310.804688 141.058594 308.441406 141.429688 C 306.550781 141.722656 304.917969 143.082031 302.976562 143.628906 C 301.003906 144.183594 299.054688 145.035156 297.136719 145.738281 C 294.847656 146.578125 292.339844 147.203125 290.011719 147.984375 C 286.574219 149.136719 283.445312 151.195312 280.195312 152.878906 C 277.972656 154.027344 275.722656 155.058594 273.40625 155.941406 C 272.734375 156.195312 272.148438 156 271.789062 154.933594 C 271.210938 153.210938 271.605469 151.421875 271.027344 149.75 C 270.34375 147.753906 269.542969 145.84375 269.417969 143.632812 C 269.28125 141.269531 268.300781 139.023438 267.125 136.914062 C 266.386719 135.582031 266.941406 134.542969 268.417969 134.519531 C 269.355469 134.503906 270.160156 134.269531 270.871094 133.675781 C 272.085938 132.664062 273.761719 132.5 274.980469 131.613281 C 277.484375 129.789062 280.457031 128.765625 282.78125 126.578125 C 284.464844 124.992188 285.890625 123.207031 287.460938 121.542969 C 288.808594 120.113281 290.265625 118.84375 291.808594 117.667969 C 293.902344 116.066406 295.410156 113.945312 297.128906 112.003906 C 297.984375 111.035156 299.019531 110.179688 300.105469 109.472656 C 301.09375 108.828125 302.164062 107.644531 303.488281 109.039062 C 303.492188 109.042969 303.871094 108.746094 304.023438 108.546875 C 305.175781 107.050781 306.953125 106.175781 307.898438 104.4375 C 308.457031 103.40625 309.203125 102.324219 310.152344 101.695312 C 311.179688 101.011719 311.058594 100.246094 310.796875 99.464844 C 310.488281 98.546875 309.917969 97.5625 308.734375 97.878906 C 308.296875 97.996094 308.4375 97.964844 308.148438 97.703125 C 307.058594 96.730469 304.859375 95.96875 304.410156 96.734375 C 303.699219 97.945312 303.226562 97.339844 302.699219 97.125 C 302.015625 96.851562 301.578125 97.257812 301.109375 97.488281 C 297.289062 99.378906 293.511719 101.304688 290.148438 104.011719 C 286.789062 106.710938 283.148438 109.058594 279.730469 111.691406 C 277.769531 113.199219 275.875 114.753906 273.699219 115.992188 C 270.511719 117.804688 267.3125 119.625 264.480469 122.019531 C 262.917969 123.339844 262.128906 123.046875 261.976562 121.0625 C 261.832031 119.128906 261.1875 117.550781 259.898438 116.148438 C 259.4375 115.648438 259.074219 115.007812 258.839844 114.363281 C 258.078125 112.246094 256.4375 110.667969 255.375 108.730469 C 255.113281 108.25 253.941406 108.316406 254.128906 107.234375 C 254.234375 106.640625 253.878906 106.175781 253.335938 106.125 C 252.722656 106.066406 253.394531 107.128906 252.660156 107.136719 C 251 104.882812 251.101562 104.589844 253.769531 103.867188 C 253.945312 103.820312 254.1875 103.941406 254.335938 103.863281 C 255.996094 102.980469 258.417969 103.386719 259.1875 100.992188 C 259.261719 100.765625 259.535156 100.792969 259.597656 101 C 259.90625 102.058594 260.144531 101.472656 260.417969 100.988281 C 261.097656 99.78125 262.285156 99.152344 263.394531 98.472656 C 265.9375 96.925781 268.664062 95.421875 270.53125 93.21875 C 273.3125 89.929688 277.550781 88.59375 280.234375 85.191406 C 280.949219 84.292969 282.191406 83.136719 283.679688 82.746094 C 285.582031 82.25 286.972656 80.820312 288.277344 79.5 C 289.085938 78.683594 289.714844 77.8125 290.777344 77.179688 C 291.449219 76.78125 292.503906 76.804688 292.785156 76.140625 C 293.40625 74.660156 294.53125 73.800781 295.820312 73.050781 C 297.734375 71.933594 299.386719 70.453125 300.832031 68.839844 C 301.421875 68.179688 302.457031 67.242188 301.867188 65.820312 C 301.265625 64.375 298.074219 62.328125 296.566406 62.792969 C 294.511719 63.425781 292.398438 63.660156 290.402344 64.796875 C 289.28125 65.433594 288.6875 66.890625 287.363281 66.894531 C 286.277344 66.898438 285.421875 67.644531 284.960938 68.089844 C 282.804688 70.171875 280.28125 71.796875 277.875 73.4375 C 273.832031 76.195312 269.875 79.097656 265.6875 81.660156 C 262.390625 83.679688 259.117188 85.910156 256.355469 88.585938 C 253.476562 91.371094 249.941406 93.425781 247.496094 96.667969 C 246.984375 97.339844 246.652344 97.128906 246.125 96.488281 C 244.269531 94.234375 242.484375 91.867188 240.007812 90.25 C 238.589844 89.320312 238.292969 87.023438 236.085938 87.105469 C 235.867188 87.113281 235.585938 86.945312 235.433594 86.773438 C 233.277344 84.359375 230.941406 82.167969 228.074219 80.601562 C 227.804688 80.457031 227.273438 80.4375 227.453125 79.871094 C 228.109375 80.375 228.386719 78.761719 228.773438 79.476562 C 229.410156 80.65625 230.222656 78.929688 230.738281 79.769531 C 231.386719 79.207031 232.238281 78.953125 232.960938 78.578125 C 234.652344 77.703125 236.679688 77.191406 238.441406 76.867188 C 241.207031 76.355469 243.195312 74.28125 246.039062 73.972656 C 247.074219 73.863281 248.5 73.667969 249.738281 73.070312 C 251.152344 72.386719 252.660156 71.476562 254.519531 71.554688 C 256.425781 71.636719 258.382812 68.925781 257.964844 67.300781 C 257.589844 65.859375 253.164062 62.53125 251.699219 62.921875 C 248.839844 63.683594 245.890625 63.410156 242.964844 64.117188 C 240.097656 64.8125 237.347656 65.875 234.765625 66.96875 C 230.929688 68.59375 226.910156 70.078125 223.503906 72.652344 C 222.90625 73.101562 221.894531 73.300781 221.632812 73.726562 C 220.628906 75.363281 219.40625 75.230469 217.910156 74.71875 C 216.78125 74.332031 216.128906 73.980469 217.390625 72.929688 C 217.660156 72.699219 218.164062 72.492188 217.835938 71.859375 C 217.085938 70.402344 218.027344 68.816406 219.640625 69.046875 C 220.5 69.171875 220.773438 68.851562 221.101562 68.347656 C 221.210938 68.179688 221.203125 67.777344 221.078125 67.648438 C 220.449219 66.996094 220.464844 68.652344 219.628906 67.878906 C 219.855469 67.257812 220.53125 66.757812 220.613281 65.917969 C 220.730469 64.679688 220.898438 64.683594 221.976562 65.535156 C 222.496094 65.945312 222.738281 65.898438 222.652344 65.589844 C 222.363281 64.550781 224.355469 64.433594 223.535156 63.25 C 225.207031 62.128906 226.199219 60.246094 228.070312 59.300781 C 228.535156 59.0625 229.152344 58.535156 228.824219 57.492188 C 228.546875 56.609375 229.335938 55.335938 230.15625 55.152344 C 231.3125 54.898438 231.898438 54.332031 232.308594 53.402344 C 232.90625 52.027344 233.800781 50.859375 234.667969 49.65625 C 236.492188 47.121094 238.398438 44.621094 239.953125 41.925781 C 241.050781 40.027344 242.21875 38.140625 243.601562 36.519531 C 245.996094 33.714844 247.3125 30.890625 246.128906 27.171875 C 245.902344 26.46875 245.515625 26.257812 245.046875 26.09375 C 244.535156 25.914062 244.230469 26.273438 244.183594 26.820312 C 244.152344 27.160156 243.96875 27.410156 243.640625 27.542969 C 243.179688 26.375 243.179688 26.382812 241.71875 26.179688 C 241.367188 26.128906 241.566406 25.789062 241.492188 25.589844 C 241.320312 25.117188 240.972656 24.980469 240.5 24.851562 C 239.449219 24.566406 238.71875 24.949219 238.496094 25.910156 C 238.203125 27.167969 236.566406 26.3125 236.300781 27.464844 C 235.628906 27.25 236.054688 26.613281 235.824219 26.179688 C 235.238281 26.515625 234.460938 26.964844 234.222656 27.28125 C 233.464844 28.28125 232.246094 27.335938 231.667969 28.113281 C 230.625 29.507812 228.785156 29.828125 227.882812 31.648438 C 226.726562 33.984375 224.382812 35.632812 223.089844 38 C 222.949219 38.257812 222.832031 38.566406 222.425781 38.527344 C 220.882812 38.378906 220.511719 39.640625 219.851562 40.617188 C 218.921875 41.996094 218.707031 44.09375 216.394531 44.171875 C 216.207031 44.179688 215.964844 44.605469 215.863281 44.878906 C 214.996094 47.167969 212.820312 48.628906 212.039062 50.964844 C 212.003906 51.078125 211.90625 51.179688 211.820312 51.269531 C 210.046875 53.074219 208.667969 55.132812 207.609375 57.4375 C 206.449219 59.957031 205.199219 62.4375 203.976562 64.925781 C 203.4375 66.019531 203.078125 67.75 202.257812 68.015625 C 201.210938 68.351562 199.777344 67.511719 198.511719 67.160156 C 197.824219 66.96875 197.144531 66.746094 196.449219 66.535156 C 196.699219 65.839844 197.289062 65.523438 197.542969 64.898438 C 199.148438 60.917969 202.851562 58.046875 203.472656 53.515625 C 203.761719 51.421875 205.507812 50.003906 206.308594 48.101562 C 206.886719 46.726562 206.890625 45.269531 207.269531 43.875 C 207.574219 42.765625 208.882812 41.648438 207.824219 40.285156 C 207.789062 40.242188 207.921875 39.972656 207.957031 39.980469 C 209.679688 40.203125 208.710938 38.609375 209.269531 38.023438 C 210.023438 37.238281 209.273438 36.171875 209.832031 35.144531 C 211.25 32.550781 211.488281 29.515625 212.351562 26.699219 C 212.628906 25.789062 212.140625 24.835938 211.976562 24.089844 C 211.449219 21.644531 212.476562 19.839844 213.523438 17.929688 C 214.597656 19.019531 213.277344 20.003906 213.355469 21.0625 C 213.378906 21.355469 213.125 21.652344 213.597656 21.730469 C 213.855469 21.773438 214.128906 21.707031 214.210938 21.417969 C 214.441406 20.585938 214.835938 19.742188 214.808594 18.914062 C 214.78125 18.164062 215.757812 17.296875 214.832031 16.722656 C 214.035156 16.226562 214.496094 18.058594 213.519531 17.660156 C 213.398438 16.828125 212.121094 15.976562 213.6875 15.148438 C 214.019531 14.972656 214.027344 13.746094 213.476562 13.53125 C 212.683594 13.21875 212.589844 11.832031 211.375 12.265625 C 211.039062 12.386719 211.132812 12.46875 211.121094 12.742188 C 211.082031 13.75 210.746094 14.5625 209.5 14.570312 C 208.113281 14.574219 208.816406 13.320312 208.375 12.757812 C 206.359375 13.207031 204.664062 14.347656 202.980469 15.417969 C 200.097656 17.253906 198.546875 20.394531 196.511719 22.960938 C 194.664062 25.296875 193.199219 28.320312 192.3125 31.199219 C 191.691406 33.214844 189.339844 35.144531 190.894531 37.703125 C 190.957031 37.804688 190.804688 38.191406 190.71875 38.203125 C 189.03125 38.40625 188.90625 40.1875 188.585938 41.078125 C 187.9375 42.875 186.640625 44.359375 186.355469 46.363281 C 186.164062 47.683594 186.476562 49.410156 185.09375 50.34375 C 184.132812 50.992188 183.972656 51.898438 183.890625 52.855469 C 183.691406 55.1875 181.804688 57.214844 182.675781 59.734375 C 182.714844 59.847656 182.488281 60.050781 182.382812 60.210938 C 181.808594 61.109375 181.515625 61.976562 182.039062 63.070312 C 182.445312 63.925781 181.824219 64.710938 181.035156 64.636719 C 180.207031 64.5625 179.4375 64.742188 178.644531 64.753906 C 177.332031 64.777344 177.683594 63.671875 177.371094 63.011719 C 178.335938 62.800781 177.921875 61.785156 178.386719 61.273438 C 180.5 58.9375 180.585938 56.160156 180.023438 53.289062 C 179.921875 52.78125 179.652344 52.214844 179.945312 51.832031 C 181.332031 50.011719 180.675781 47.769531 181.265625 45.761719 C 182.023438 43.1875 182.253906 40.464844 182.160156 37.714844 C 182.066406 35.023438 182.378906 32.335938 182.890625 29.65625 C 183.371094 27.132812 183.0625 24.5 184.246094 22.042969 C 184.828125 20.835938 184.816406 19.375 184.816406 17.960938 C 184.820312 16.097656 184.578125 14.199219 185.09375 12.367188 C 185.550781 10.746094 186.433594 9.171875 185.390625 7.46875 C 185.144531 7.066406 184.992188 6.574219 185.199219 6.191406 C 186.074219 4.585938 184.878906 3.800781 183.882812 3.140625 C 183.09375 2.617188 182.105469 2.394531 181.222656 1.929688 C 180.015625 1.296875 178.25 0.0585938 178.238281 3.035156 C 177.59375 2.828125 177.964844 2.4375 177.847656 2.199219 C 177.492188 1.496094 177.269531 0.371094 176.214844 0.804688 C 175.589844 1.0625 174.0625 0.996094 174.703125 2.550781 C 174.886719 3 174.585938 3.382812 174.183594 3.363281 C 173.628906 3.339844 172.804688 3.824219 172.570312 2.929688 C 172.367188 2.144531 171.675781 1.820312 171.269531 2.078125 C 170.507812 2.5625 169.570312 2.339844 168.976562 2.714844 C 167.703125 3.519531 165.496094 3.222656 165.289062 5.273438 C 165.195312 6.191406 164.890625 6.980469 164.378906 7.472656 C 162.765625 9.011719 162.882812 11.183594 162.921875 12.875 C 162.992188 16.28125 162.445312 19.59375 162.121094 22.925781 C 161.84375 25.847656 160.636719 28.675781 161.449219 31.707031 C 161.605469 32.285156 161.835938 32.859375 161.847656 33.523438 C 161.878906 35.808594 160.890625 37.917969 161.273438 40.34375 C 161.917969 44.441406 161.171875 48.613281 160.609375 52.695312 C 160.304688 54.921875 159.902344 57.410156 160.660156 59.183594 C 161.707031 61.644531 161.078125 63.667969 160.6875 65.878906 C 160.59375 66.40625 160.542969 66.972656 159.578125 67.109375 C 157.8125 67.359375 156.117188 68.082031 154.363281 68.484375 C 151.324219 69.175781 148.613281 70.710938 145.714844 71.765625 C 144.5 72.207031 143.738281 71.785156 142.9375 71.222656 C 141.40625 70.152344 140.507812 68.457031 139.066406 67.210938 C 137.820312 66.136719 136.414062 65.042969 135.378906 63.683594 C 134.8125 62.941406 134.574219 61.953125 133.476562 61.703125 C 131.363281 61.230469 130.433594 59.40625 129.238281 57.898438 C 128.246094 56.648438 127.207031 55.433594 126.488281 53.988281 C 126.421875 53.851562 126.144531 53.671875 126.066406 53.710938 C 123.964844 54.777344 122.964844 52.703125 121.78125 51.886719 C 120.300781 50.871094 118.5 51.105469 117.132812 50.074219 C 116.984375 49.964844 116.441406 50.28125 116.144531 50.488281 C 115.898438 50.664062 115.667969 51.101562 115.382812 50.851562 C 114.144531 49.769531 114.234375 50.585938 114.28125 51.542969 C 114.328125 52.523438 114.199219 52.742188 113.855469 52.597656 C 113.363281 52.394531 112.308594 53.617188 112.308594 51.988281 C 112.308594 51.359375 111.675781 50.847656 111.28125 51.8125 C 111.054688 52.363281 111 52.304688 110.578125 52.0625 C 109.425781 51.394531 108.484375 52.324219 108.066406 52.96875 C 107.601562 53.691406 107.496094 54.871094 108.214844 55.792969 C 111.390625 59.878906 115.421875 63.113281 119.097656 66.699219 C 121.882812 69.414062 124.882812 71.917969 127.828125 74.46875 C 129.300781 75.746094 130.230469 77.53125 132.464844 78.792969 C 130.507812 78.804688 129.574219 80.144531 128.246094 80.121094 C 125.636719 80.082031 124.972656 82.664062 123.207031 83.769531 C 122.441406 84.246094 121.957031 84.972656 120.882812 84.914062 C 119.558594 84.839844 118.300781 84.636719 117.023438 84.21875 C 111.976562 82.574219 107.085938 80.355469 101.625 80.21875 C 99.808594 80.171875 98.015625 79.457031 96.195312 79.339844 C 93.570312 79.167969 90.988281 79.214844 88.4375 78.214844 C 86.097656 77.296875 83.53125 77.128906 81.019531 76.789062 C 77.988281 76.382812 74.707031 76.675781 71.976562 78.042969 C 71.761719 78.152344 71.585938 78.011719 71.363281 77.816406 C 70.570312 77.109375 69.742188 77.914062 69.097656 78.136719 C 68.445312 78.359375 69.171875 79.84375 68.191406 80.359375 C 69.746094 80.785156 70.339844 82.648438 71.734375 83.039062 C 75.242188 84.019531 78.535156 85.730469 82.292969 85.945312 C 84.777344 86.089844 87.222656 86.796875 89.695312 87.15625 C 93.402344 87.695312 97.308594 87.539062 100.808594 88.535156 C 104.691406 89.640625 108.722656 90.03125 112.542969 91.347656 C 113.476562 91.671875 113.570312 91.59375 113.179688 92.550781 C 112.59375 93.984375 111.074219 94.636719 110.5 95.707031 C 109.15625 98.203125 106.441406 99.535156 105.460938 102.222656 C 105.351562 102.515625 105.171875 102.933594 104.941406 103 C 102.636719 103.675781 102.542969 105.882812 101.53125 107.5 C 100.882812 108.53125 101.042969 110.765625 98.710938 110.40625 C 98.070312 110.304688 97.9375 110.933594 98.082031 111.644531 C 98.289062 112.667969 97.027344 112.703125 96.652344 113.378906 C 95.320312 112.492188 95.59375 113.601562 95.535156 114.285156 C 95.5 114.660156 95.617188 115.277344 95.445312 115.375 C 93.875 116.226562 93.667969 117.765625 93.660156 119.214844 C 93.652344 120.5 92.890625 120.351562 92.234375 120.253906 C 91.503906 120.140625 90.878906 119.683594 90.46875 119.058594 C 91.03125 118.4375 91.613281 119.175781 92.289062 118.703125 C 89.5 117.113281 86.425781 117.5 83.609375 117.117188 C 82.15625 116.921875 80.898438 116.503906 79.636719 116 C 77.808594 115.265625 76.109375 114.253906 74.054688 114.160156 C 72.292969 114.078125 70.503906 112.71875 68.792969 114.324219 C 68.550781 114.550781 68.363281 114.34375 68.132812 114.265625 C 64.207031 112.945312 61.023438 114.957031 57.796875 116.652344 C 56.960938 117.089844 57.289062 118.085938 58.214844 118.546875 C 58.726562 118.800781 59.441406 119.199219 59.269531 119.917969 C 58.964844 121.179688 60.292969 121.667969 60.660156 121.722656 C 63.449219 122.175781 65.855469 123.824219 68.511719 124.347656 C 71.535156 124.941406 74.742188 124.734375 77.867188 124.679688 C 81.035156 124.625 84.199219 124.316406 87.367188 124.167969 C 87.878906 124.144531 88.609375 123.804688 88.910156 124.445312 C 89.207031 125.085938 88.707031 125.675781 88.320312 126.144531 C 85.433594 129.640625 84.746094 134.1875 82.59375 138.0625 C 81.277344 140.433594 81.046875 143.367188 80.089844 145.992188 C 79.460938 147.722656 79.621094 149.6875 80.167969 151.484375 C 80.4375 152.375 81.167969 153.066406 79.9375 153.871094 C 79.449219 154.1875 79.167969 155.078125 79.5 155.789062 C 80.671875 158.285156 81.457031 160.832031 80.835938 163.636719 C 80.6875 164.304688 81.078125 164.921875 81.402344 165.378906 C 83.65625 168.59375 84.367188 172.699219 87.273438 175.53125 C 87.53125 175.785156 87.761719 176.167969 87.8125 176.515625 C 88.308594 179.953125 92.078125 180.878906 93.320312 183.734375 C 94.320312 183.140625 94.460938 184.71875 94.9375 184.535156 C 96.5625 183.90625 97.117188 185.628906 97.316406 186.105469 C 98.53125 189.019531 101.101562 190.65625 103.097656 192.816406 C 103.890625 193.675781 104.820312 194.089844 103.058594 195.210938 C 101.1875 196.398438 98.953125 197.515625 97.894531 199.535156 C 97.019531 201.207031 95.917969 202.410156 94.410156 203.410156 C 93.984375 203.691406 93.363281 203.734375 93.203125 204.464844 C 92.84375 206.050781 91.578125 207.15625 90.816406 208.546875 C 88.722656 212.390625 85.699219 215.652344 83.6875 219.558594 C 82.660156 221.554688 81.757812 223.617188 80.710938 225.84375 C 81.585938 225.226562 82.25 225.40625 83.03125 225.777344 C 81.628906 225.96875 81.941406 227.386719 81.210938 228.003906 C 78.972656 229.886719 76.210938 231.445312 76.996094 235.128906 C 77.035156 235.320312 76.816406 235.578125 76.6875 235.789062 C 73.824219 240.441406 73.261719 245.789062 72.148438 250.960938 C 71.511719 253.914062 71.035156 256.878906 70.855469 259.9375 C 70.664062 263.144531 70.589844 266.339844 70.949219 269.488281 C 71.296875 272.503906 71.363281 275.542969 71.460938 278.535156 C 71.523438 280.496094 71.898438 282.300781 72.171875 284.1875 C 72.523438 286.628906 73.726562 288.785156 74.160156 291.214844 C 74.546875 293.382812 75.339844 295.5625 76.378906 297.511719 C 78.121094 300.789062 79.179688 304.429688 81.609375 307.296875 C 81.683594 306.921875 81.773438 306.453125 81.949219 305.574219 C 82.464844 306.828125 83.617188 307.574219 82.207031 308.503906 C 81.792969 308.777344 82.148438 308.8125 82.3125 308.949219 C 84.523438 310.785156 85.53125 313.800781 88.300781 315.066406 C 89.097656 315.429688 89.875 315.722656 90.578125 316.316406 C 93.375 318.679688 96.617188 320.304688 99.988281 321.6875 C 100.957031 322.082031 101.585938 323.058594 102.65625 323.289062 C 102.308594 324.238281 101.714844 324.921875 100.699219 325.203125 C 100.601562 325.230469 100.585938 325.503906 100.507812 325.644531 C 99.8125 326.878906 99.328125 328.238281 98.21875 329.222656 C 97.050781 330.253906 96.410156 331.832031 95.886719 333.085938 C 95.039062 335.117188 94.597656 337.316406 93.214844 339.144531 C 92.964844 339.472656 92.851562 339.964844 92.832031 340.390625 C 92.746094 342.042969 92.054688 343.433594 91.335938 344.894531 C 90.832031 345.914062 89.945312 346.695312 89.734375 347.929688 C 89.199219 351.015625 87.300781 353.660156 86.730469 356.75 C 86.632812 357.285156 85.878906 357.109375 85.910156 357.675781 C 84.667969 357.582031 85.386719 358.539062 85.441406 358.816406 C 85.808594 360.699219 85.339844 361.710938 83.738281 362.328125 C 83.425781 362.449219 83.078125 362.808594 83.414062 363.25 C 83.675781 363.597656 83.964844 363.875 83.980469 364.394531 C 84.042969 366.464844 86.695312 368.210938 88.753906 367.589844 C 88.917969 367.539062 89.105469 367.5625 89.28125 367.550781 C 89.066406 366.347656 91.234375 366.8125 90.816406 365.273438 C 90.6875 364.792969 91.621094 364.773438 91.90625 365.316406 C 92.128906 365.734375 92.101562 366.285156 92.195312 366.839844 C 93.367188 364.394531 95.382812 366.789062 96.808594 365.9375 C 97.136719 365.742188 97.382812 365.617188 97.832031 365.8125 C 99.828125 366.679688 103.828125 365.347656 104.574219 363.355469 C 104.960938 362.328125 106.253906 362.035156 106.214844 360.925781 C 106.144531 358.71875 106.8125 356.6875 107.851562 354.855469 C 109.019531 352.796875 108.269531 350.410156 109.351562 348.367188 C 110.113281 346.933594 110.984375 345.492188 110.644531 343.6875 C 110.539062 343.140625 110.738281 342.292969 111.125 341.949219 C 112.023438 341.148438 112.042969 340.207031 111.894531 339.21875 C 111.769531 338.394531 112.007812 337.660156 112.128906 336.878906 C 112.53125 334.304688 113.296875 331.792969 113.226562 329.132812 C 113.210938 328.492188 112.992188 327.078125 114.472656 327.234375 C 117.308594 327.53125 120.117188 327.929688 122.996094 327.808594 C 125.382812 327.710938 127.785156 327.785156 130.175781 327.867188 C 132.808594 327.957031 135.351562 326.679688 138.015625 326.308594 C 139.242188 326.136719 139.128906 326.457031 139.289062 327.441406 C 139.503906 328.769531 138.199219 329.59375 138.542969 330.855469 C 139.0625 332.792969 138.804688 334.847656 139.503906 336.796875 C 139.835938 337.722656 139.800781 338.929688 139.21875 339.949219 C 139.050781 340.238281 138.769531 340.527344 139.007812 340.984375 C 140.753906 344.28125 141.859375 347.738281 141.511719 351.53125 C 141.476562 351.925781 141.726562 352.046875 141.980469 352.257812 C 142.347656 352.574219 142.433594 352.917969 141.722656 352.84375 C 142.5625 353.671875 141.378906 354.789062 142.050781 355.5625 C 143.597656 357.351562 144.441406 359.6875 146.628906 361.011719 C 147.75 361.695312 148.578125 362.632812 149.792969 361.359375 C 150.230469 360.898438 150.613281 361.363281 151.015625 361.390625 C 152.476562 361.488281 154.070312 361.871094 154.289062 359.640625 C 154.292969 359.59375 154.5 359.5625 154.609375 359.527344 C 155.339844 359.804688 154.503906 360.589844 154.605469 360.65625 C 156.6875 360.703125 158.027344 359.324219 159.851562 359.820312 C 160.3125 359.945312 160.796875 359.878906 161.371094 359.277344 C 162.050781 358.570312 162.3125 357.398438 163.316406 357.082031 C 164.121094 356.828125 164.386719 356.386719 164.507812 355.601562 C 164.769531 353.917969 164.011719 352.417969 163.6875 350.871094 C 163.1875 348.480469 161.515625 346.359375 162.089844 343.714844 C 162.175781 343.332031 162.175781 342.957031 161.917969 342.621094 C 160.753906 341.105469 161.636719 338.667969 159.628906 337.519531 C 159.523438 337.460938 159.496094 337.15625 159.523438 336.980469 C 159.90625 334.722656 158.128906 333.09375 157.792969 331.039062 C 157.648438 330.160156 157.613281 328.851562 157.0625 328.523438 C 154.976562 327.28125 155.957031 324.886719 154.859375 323.1875 C 154.171875 322.121094 153.726562 320.347656 153.175781 318.894531 C 152.746094 317.765625 152.890625 316.8125 153.382812 315.78125 C 153.742188 315.03125 154.6875 315.679688 154.992188 315.039062 C 156.191406 312.539062 158.003906 310.507812 159.65625 308.316406 C 161.722656 305.582031 162.777344 302.074219 164.242188 298.886719 C 164.691406 297.914062 165.074219 296.972656 164.351562 295.851562 C 163.675781 294.808594 164.398438 293.617188 164.699219 292.625 C 164.960938 291.746094 165.6875 292.859375 166.238281 292.945312 C 167.066406 293.070312 166.933594 292.480469 167.253906 292.214844 C 168.472656 291.207031 167.585938 289.644531 168.425781 288.421875 C 169.363281 287.058594 169.644531 285.261719 170.363281 283.722656 C 170.699219 282.996094 169.777344 282.167969 170.246094 281.953125 C 172.832031 280.742188 172.195312 277.941406 173.378906 276.074219 C 173.746094 275.5 173.253906 275.078125 173.132812 274.984375 C 172.542969 274.523438 172.761719 275.316406 172.546875 275.449219 C 172 275.789062 170.402344 275.019531 170.640625 274.59375 C 171.328125 273.347656 171.367188 271.925781 171.871094 270.640625 C 172.308594 269.523438 174.679688 269.027344 172.980469 267.203125 C 172.941406 267.164062 173.152344 266.777344 173.207031 266.785156 C 174.140625 266.953125 173.808594 265.523438 174.878906 265.644531 C 174.660156 266.5 174.457031 267.324219 174.242188 268.148438 C 174.078125 268.773438 174.390625 269.121094 174.925781 269.3125 C 175.277344 269.4375 175.695312 269.292969 175.554688 268.917969 C 174.945312 267.316406 176.050781 266.457031 176.960938 265.558594 C 178.496094 264.042969 177.648438 261.808594 178.863281 259.996094 C 179.757812 258.660156 180.253906 256.660156 180.753906 254.894531 C 181.488281 252.285156 183.464844 250.445312 184.9375 248.292969 C 187.714844 244.230469 189.144531 239.359375 192.472656 235.621094 C 193.722656 234.214844 194.710938 232.414062 196.886719 232.265625 C 197.875 232.199219 198.839844 233.046875 199.882812 232.332031 C 201.617188 231.144531 203.84375 231.542969 205.699219 230.410156 C 207.15625 229.523438 208.929688 228.917969 210.742188 228.683594 C 210.949219 228.660156 211.371094 228.660156 211.691406 228.527344 C 213.292969 227.84375 214.742188 226.980469 216.132812 225.96875 C 217.5 224.972656 218.871094 224.308594 220.726562 224.304688 C 222.816406 224.296875 224.113281 222.125 226.0625 221.492188 C 226.933594 221.207031 227.574219 220.695312 228.183594 220.074219 C 229.128906 219.105469 229.929688 218.101562 231.324219 217.496094 C 231.984375 217.207031 233.03125 216.90625 233.71875 216.101562 C 235.21875 214.34375 237.355469 213.285156 239.167969 211.863281 C 241.082031 210.363281 243.460938 209.410156 244.859375 207.300781 C 245.238281 206.726562 244.992188 205.886719 245.828125 205.410156 C 247.738281 204.320312 249.179688 202.589844 250.6875 201.070312 C 252.511719 199.238281 254.449219 197.265625 255.359375 194.75 C 255.996094 192.984375 257.308594 191.820312 258.453125 190.542969 C 258.765625 190.199219 259.742188 189.203125 260.164062 189.546875 C 261.332031 190.492188 262.78125 189.949219 263.957031 190.597656 C 265.84375 191.640625 268.277344 192.261719 270.019531 192.082031 C 273.609375 191.71875 276.820312 192.753906 280.167969 193.300781 C 283.140625 193.789062 286.058594 194.820312 289.035156 194.988281 C 293.753906 195.257812 298.347656 195.859375 302.789062 197.5 C 303.648438 197.816406 304.371094 197.4375 304.96875 196.902344 C 305.5625 196.367188 306.699219 195.664062 306.300781 195 C 305.40625 193.496094 304.953125 191.773438 303.523438 190.484375 C 301.734375 188.875 299.816406 187.59375 297.578125 186.886719 C 296.964844 186.695312 296.570312 186.214844 296.003906 185.988281 C 294.332031 185.320312 292.578125 185.507812 290.90625 185.007812 C 288.839844 184.390625 286.753906 183.304688 284.640625 183.351562 C 281.511719 183.425781 278.558594 182.074219 275.316406 182.726562 C 273.699219 183.050781 271.726562 182.304688 269.945312 181.753906 C 268.421875 181.28125 266.550781 181.035156 265.191406 181.851562 C 264.59375 182.214844 264.519531 182.53125 264.140625 181.902344 C 263.761719 181.273438 264.015625 181.015625 264.753906 180.71875 C 267.4375 179.640625 270.203125 176.222656 270.355469 173.910156 C 270.085938 174.085938 269.898438 174.234375 269.691406 174.34375 C 269.523438 174.429688 269.382812 174.808594 269.128906 174.417969 C 271.417969 171.460938 272.328125 168.101562 271.632812 164.449219 C 271.375 163.078125 272.152344 163.058594 272.886719 163.0625 C 274.429688 163.066406 276.011719 162.796875 277.449219 162.5625 C 280.265625 162.101562 283.113281 161.824219 285.921875 161.320312 C 289.257812 160.71875 292.800781 161.203125 295.902344 159.394531 C 298.5 157.875 301.683594 157.507812 304.019531 155.585938 C 305.539062 154.332031 307.222656 153.347656 308.894531 152.515625 C 311.253906 151.34375 313.777344 150.433594 316.210938 149.363281 C 316.777344 149.117188 317.394531 148.746094 317.957031 148.796875 C 320.589844 149.019531 322.847656 147.699219 325.230469 147.027344 C 327.660156 146.335938 328.449219 144.238281 327.195312 142.742188 Z M 255.515625 112.980469 C 254.625 112.910156 253.636719 113.011719 253.5625 112.796875 C 253.003906 111.183594 252.625 109.511719 252.453125 107.757812 C 253.429688 109.421875 254.40625 111.089844 255.515625 112.980469 Z M 252.972656 121.886719 C 253.707031 123.816406 254.597656 125.644531 256.082031 127.054688 C 257.371094 128.28125 257.691406 129.765625 257.53125 131.332031 C 257.460938 131.972656 257.582031 132.597656 257.574219 133.347656 C 256.230469 132.519531 255.828125 131.167969 255.484375 130.019531 C 254.4375 126.546875 252.492188 123.453125 251.453125 119.988281 C 251.300781 119.484375 250.820312 119.707031 250.609375 119.558594 C 249.984375 119.121094 251.101562 119.339844 250.925781 118.96875 C 252.621094 119.210938 252.554688 120.796875 252.972656 121.886719 Z M 250.542969 116.601562 C 250.917969 117.457031 251.171875 118.09375 250.90625 118.9375 C 248.816406 116.347656 247.339844 113.488281 246.984375 110.144531 C 248.121094 112.328125 249.558594 114.332031 250.542969 116.601562 Z M 170.496094 49.28125 C 168.871094 48.0625 170.707031 46.113281 169.300781 44.691406 C 171.902344 45.8125 172.269531 47.546875 170.496094 49.28125 Z M 170.835938 266.789062 C 170.363281 268.464844 169.75 270.101562 169.128906 271.726562 C 168.988281 272.09375 168.699219 272.570312 168.136719 272.425781 C 167.542969 272.269531 167.6875 271.792969 167.691406 271.777344 C 168.070312 269.617188 168.265625 267.820312 169.789062 266.585938 C 169.9375 266.464844 170.0625 266.316406 170.191406 266.175781 C 170.609375 265.707031 170.070312 264.375 170.890625 264.648438 C 171.628906 264.890625 171.03125 266.09375 170.835938 266.789062 Z M 174.929688 233.722656 C 174.183594 234.449219 173 234.644531 172.710938 235.996094 C 172.285156 237.980469 170.453125 239.492188 170.929688 241.890625 C 171.121094 242.855469 170.160156 244.085938 169.566406 244.816406 C 167.082031 247.875 166.484375 251.652344 165.261719 255.160156 C 164.273438 257.996094 163.941406 261.027344 163.742188 264.101562 C 163.628906 265.902344 164.378906 267.945312 163.035156 269.609375 C 163.5 269.804688 163.554688 269.53125 163.710938 269.335938 C 164.234375 268.695312 164.414062 267.679688 165.488281 267.632812 C 165.578125 267.628906 165.796875 267.992188 165.761719 268.042969 C 165.085938 268.964844 165.710938 270.113281 164.863281 271.214844 C 163.929688 272.425781 162.992188 272.285156 162.066406 272.113281 C 160.480469 271.824219 160.65625 273.359375 160.398438 273.863281 C 159.324219 275.96875 158.871094 278.371094 158.335938 280.660156 C 157.839844 282.800781 156.25 284.460938 156.121094 286.746094 C 156.089844 287.230469 156.007812 287.800781 156.019531 288.363281 C 156.039062 289.105469 156.453125 290.019531 155.332031 290.429688 C 155.113281 290.511719 155.355469 291.011719 155.761719 291.105469 C 156.246094 291.214844 156.039062 291.574219 156.050781 291.808594 C 156.09375 292.492188 156.066406 293.175781 156.066406 293.84375 C 154.964844 294.074219 155.527344 292.808594 154.582031 292.941406 C 153.996094 293.398438 153.796875 294.148438 153.640625 295.214844 C 153.441406 296.582031 153.773438 298.363281 152.121094 299.261719 C 152.023438 299.316406 151.90625 299.464844 151.917969 299.5625 C 152.195312 303.019531 148.640625 305.03125 148.589844 308.515625 C 148.574219 309.601562 146.917969 310.828125 145.832031 311.902344 C 143.640625 314.066406 140.917969 315.355469 138.59375 317.222656 C 135.195312 319.957031 132.65625 320.789062 127.277344 321.398438 C 124.859375 321.675781 122.472656 321.15625 120.824219 320.15625 C 119.007812 319.050781 117.136719 318.488281 115.246094 317.972656 C 114.027344 317.636719 113.71875 316.566406 112.785156 316.003906 C 110.285156 314.496094 107.363281 313.578125 105.292969 311.464844 C 103.855469 310 102.796875 308.136719 101.21875 306.800781 C 99.191406 305.089844 98.160156 302.488281 95.882812 301.019531 C 95.171875 300.5625 95.082031 299.496094 94.929688 298.914062 C 94.613281 297.679688 93.898438 296.621094 93.652344 295.414062 C 93.449219 294.402344 92.632812 293.675781 92.96875 292.335938 C 93.457031 290.382812 91.707031 288.847656 90.996094 287.113281 C 90.496094 285.890625 90.15625 284.847656 90.703125 283.648438 C 90.875 283.269531 91.058594 282.871094 90.789062 282.585938 C 88.570312 280.199219 89.117188 277.230469 88.996094 274.394531 C 88.949219 273.324219 89.191406 272.171875 87.894531 271.515625 C 87.46875 271.296875 87.429688 270.640625 87.472656 270.109375 C 87.515625 269.574219 88.003906 268.96875 87.15625 268.542969 C 87.046875 268.488281 86.949219 267.453125 87.554688 267.253906 C 88.167969 267.046875 87.902344 268.140625 88.542969 268.082031 C 89.164062 267.78125 89.171875 267.054688 89.132812 266.597656 C 88.835938 263.109375 89.011719 259.636719 89.246094 256.15625 C 89.273438 255.761719 89.03125 255.316406 88.824219 254.945312 C 88.363281 254.117188 88.546875 253.695312 89.078125 252.777344 C 90 251.1875 90.667969 249.304688 90.949219 247.359375 C 91.253906 245.257812 90.84375 242.96875 91.859375 241.0625 C 93.742188 237.527344 94.121094 233.570312 95.316406 229.851562 C 95.824219 228.28125 95.890625 226.605469 96.640625 225.046875 C 97.1875 223.910156 96.09375 222.464844 96.976562 221.117188 C 97.554688 221.429688 97.207031 222.09375 97.582031 222.488281 C 97.640625 222.445312 97.734375 222.410156 97.761719 222.347656 C 98.199219 221.25 98.546875 220.066406 98.839844 218.984375 C 99.5 216.578125 102.789062 215.597656 102.078125 212.589844 C 101.976562 212.164062 102.578125 212.097656 102.800781 211.847656 C 104 210.515625 104.925781 209.085938 105.734375 207.402344 C 106.613281 205.578125 106.4375 203.339844 107.996094 201.828125 C 108.792969 201.054688 108.816406 199.832031 109.59375 198.957031 C 110.257812 198.210938 110.984375 198.324219 111.398438 198.6875 C 113.667969 200.664062 116.332031 202.097656 118.488281 204.265625 C 119.5625 205.347656 120.949219 206.246094 122.195312 207.230469 C 127.246094 211.214844 133.058594 214.019531 138.507812 217.386719 C 141.621094 219.3125 145.3125 220.292969 148.707031 221.792969 C 149.820312 222.289062 151.015625 222.566406 151.953125 223.578125 C 152.898438 224.601562 154.492188 224.054688 155.78125 224.46875 C 160.46875 225.976562 165.039062 227.84375 169.890625 228.847656 C 171.519531 229.1875 173.09375 229.902344 174.714844 230.390625 C 176.5 230.925781 176.464844 232.226562 174.929688 233.722656 Z M 244.277344 198.964844 C 243.621094 199.886719 242.386719 200.125 241.894531 201.234375 C 241.765625 201.140625 241.628906 201.050781 241.5 200.960938 C 242.023438 199.992188 242.460938 198.949219 243.140625 198.109375 C 243.28125 197.941406 243.824219 197.003906 244.445312 197.507812 C 245 197.957031 244.613281 198.492188 244.277344 198.964844 Z M 256.195312 158.050781 C 256.640625 158.835938 256.496094 159.730469 256.820312 160.523438 C 256.914062 160.742188 256.835938 161.03125 256.835938 161.285156 C 256.886719 162.390625 256.269531 163.308594 255.421875 163.664062 C 253.675781 164.390625 253.632812 166 253.203125 167.363281 C 252.5 169.589844 252.199219 171.953125 251.121094 174.050781 C 250.902344 174.476562 250.957031 174.851562 250.863281 175.234375 C 250.628906 176.199219 250.753906 176.980469 249.25 177.4375 C 248.109375 177.785156 247.097656 179.492188 246.191406 180.691406 C 245.03125 182.222656 243.128906 183.425781 242.519531 184.957031 C 241.402344 187.765625 238.710938 188.871094 237.175781 191.171875 C 236.003906 192.925781 233.890625 194.113281 232.21875 195.566406 C 230.882812 196.726562 230.023438 198.449219 229.03125 199.976562 C 228.90625 200.167969 228.898438 200.746094 228.671875 200.6875 C 226.859375 200.226562 226.394531 202.304688 225.3125 202.542969 C 223.4375 202.957031 222.253906 204.21875 220.78125 205.101562 C 219.300781 205.996094 217.480469 206.28125 216.421875 208.050781 C 216.144531 208.515625 214.546875 209.164062 213.652344 209.367188 C 212.195312 209.699219 211.53125 210.648438 210.710938 211.539062 C 209.988281 212.324219 209.246094 213.066406 208.191406 213.230469 C 204.96875 213.730469 202.605469 215.722656 200.21875 217.691406 C 200.03125 217.84375 199.789062 218.003906 199.5625 218.023438 C 195.273438 218.371094 191.5625 220.730469 187.410156 221.554688 C 186.996094 221.636719 186.609375 221.992188 186.152344 221.878906 C 182.792969 221.03125 179.332031 221.570312 175.894531 221.078125 C 172.21875 220.546875 168.695312 219.527344 165.167969 218.636719 C 162.25 217.898438 159.164062 217.027344 156.683594 215.066406 C 155.105469 213.820312 153.035156 213.867188 151.382812 212.765625 C 149.375 211.429688 147.175781 210.390625 145.0625 209.21875 C 142.929688 208.039062 140.539062 207.15625 138.742188 205.589844 C 136.511719 203.648438 133.855469 202.4375 131.476562 200.789062 C 128.742188 198.894531 125.820312 197.210938 123.125 195.21875 C 121 193.648438 119.332031 191.441406 117.328125 189.851562 C 114.460938 187.570312 112.4375 184.628906 109.847656 182.175781 C 106.867188 179.351562 104.730469 175.886719 102.832031 172.320312 C 101.429688 169.6875 101.175781 166.566406 99.75 163.902344 C 100.992188 161.6875 98.574219 159.128906 100.394531 156.96875 C 99.527344 155.492188 100.679688 153.808594 99.835938 152.257812 C 99.03125 150.78125 99.925781 149.125 100.695312 148.136719 C 102.378906 145.976562 102.425781 143.332031 103.296875 140.980469 C 104.074219 138.878906 105.4375 137.085938 106.011719 134.925781 C 106.546875 132.914062 108.148438 131.457031 108.710938 129.363281 C 109.507812 126.390625 111.828125 124.144531 113.414062 121.535156 C 114.207031 120.230469 115.058594 118.992188 115.367188 117.484375 C 115.644531 116.113281 116.894531 115.542969 117.683594 114.601562 C 118.113281 114.078125 118.582031 113.632812 118.8125 112.96875 C 118.976562 112.492188 118.949219 111.851562 119.898438 112.164062 C 120.980469 112.519531 120.457031 110.328125 121.78125 110.765625 C 121.105469 108.980469 122.960938 108.558594 123.683594 107.769531 C 126.242188 104.976562 128.382812 101.738281 131.683594 99.683594 C 132.390625 99.246094 132.496094 98.40625 132.976562 97.796875 C 134.480469 95.882812 136.296875 94.460938 138.191406 92.972656 C 139.53125 91.917969 141.351562 91.09375 142.117188 89.289062 C 142.296875 88.859375 142.730469 88.476562 143.339844 88.523438 C 144.796875 88.636719 145.285156 87.117188 146.382812 86.546875 C 146.839844 86.3125 147.53125 85.761719 148.054688 85.644531 C 149.789062 85.261719 151.257812 84.597656 152.46875 83.242188 C 153.089844 82.539062 154.332031 82.949219 155.035156 82.230469 C 157.589844 79.617188 161.242188 79.429688 164.355469 78.066406 C 165.894531 77.390625 167.1875 76.222656 168.871094 75.875 C 169.164062 75.8125 169.441406 75.476562 169.707031 75.503906 C 173.125 75.800781 176.046875 73.5625 179.566406 73.765625 C 181.496094 73.875 183.59375 73.710938 185.601562 73.550781 C 186.953125 73.445312 187.613281 74.53125 188.703125 74.6875 C 193.417969 75.367188 197.5625 77.691406 201.929688 79.332031 C 205.769531 80.773438 209.328125 82.890625 212.882812 84.957031 C 214.28125 85.765625 215.605469 86.683594 216.953125 87.570312 C 220.074219 89.625 222.910156 91.988281 225.328125 94.828125 C 225.816406 95.402344 226.304688 95.828125 226.996094 96.101562 C 229.148438 96.941406 229.449219 99.296875 230.75 100.847656 C 233.34375 103.945312 236.019531 106.945312 239.011719 109.65625 C 239.253906 109.878906 239.84375 110.277344 239.257812 110.441406 C 237.917969 110.828125 238.765625 111.386719 239.175781 111.558594 C 241.554688 112.558594 242.050781 114.738281 242.667969 116.863281 C 242.910156 117.691406 243.785156 117.945312 244.269531 118.65625 C 245.710938 120.78125 247.847656 122.460938 247.011719 125.523438 C 246.890625 125.964844 247.515625 126.691406 247.921875 127.179688 C 248.539062 127.910156 249.523438 128.433594 248.957031 129.644531 C 250.851562 129.816406 249.332031 131.792969 250.578125 132.675781 C 251.417969 133.265625 251.449219 135.234375 251.53125 136.609375 C 251.644531 138.566406 252.367188 140.445312 253.3125 141.894531 C 253.890625 142.785156 253.117188 143.777344 254.039062 144.292969 C 253.183594 144.960938 254.101562 145.207031 254.351562 145.609375 C 255.914062 148.105469 258.105469 150.292969 257.992188 153.59375 C 257.957031 154.703125 257.695312 155.46875 256.242188 156.824219 C 256.015625 157.03125 256.015625 157.738281 256.195312 158.050781 Z M 258.617188 135.53125 C 258.121094 136.046875 258.707031 136.816406 257.992188 137.378906 C 257.277344 136.804688 256.773438 136.230469 257.101562 135.289062 C 257.207031 134.992188 256.738281 134.65625 257.21875 134.332031 C 257.808594 133.929688 257.832031 134.910156 258.449219 134.726562 C 258.898438 134.589844 258.8125 135.328125 258.617188 135.53125 Z M 205.289062 192.800781 C 204.855469 193.484375 205.425781 194.179688 205.078125 195.011719 C 203.792969 198.050781 201.742188 200.359375 199.113281 202.222656 C 198.511719 202.652344 197.765625 202.878906 197.089844 203.207031 C 195.277344 204.097656 193.25 204.183594 191.363281 205.191406 C 189.230469 206.328125 186.425781 206.316406 183.890625 206.546875 C 182.179688 206.703125 180.644531 207.480469 178.945312 207.601562 C 177.933594 207.671875 176.996094 207.59375 175.980469 207.394531 C 172.269531 206.65625 169.019531 204.710938 165.554688 203.386719 C 162.558594 202.242188 159.160156 200.777344 158.300781 196.855469 C 158.144531 196.136719 157.160156 196.113281 156.554688 195.421875 C 156.457031 196.085938 156.394531 196.515625 156.351562 196.8125 C 154.238281 195.449219 152.609375 193.476562 150.722656 191.832031 C 148.527344 189.921875 145.441406 189.058594 143.949219 186.257812 C 143.40625 185.238281 142.378906 184.449219 140.925781 184.582031 C 140.085938 184.660156 140.007812 183.410156 139.28125 183.210938 C 137.289062 182.667969 136.175781 181.179688 135.050781 179.617188 C 134.402344 178.71875 133.445312 178.140625 132.480469 177.507812 C 130.921875 176.484375 129.867188 174.734375 128.765625 173.097656 C 127.148438 170.6875 126.746094 167.796875 124.929688 165.421875 C 123.285156 163.265625 123.109375 160.191406 122.394531 157.492188 C 122.28125 157.078125 122.605469 156.535156 122.769531 156.0625 C 124.753906 150.347656 128.949219 146.664062 134.015625 143.746094 C 136.125 142.53125 138.070312 141.050781 140.269531 139.957031 C 141.277344 139.457031 142.4375 139.058594 143.359375 138.929688 C 144.464844 138.773438 144.34375 140.113281 143.929688 141.117188 C 144.222656 140.808594 144.597656 140.546875 144.789062 140.183594 C 145.101562 139.582031 145.5 139.027344 146.164062 139.441406 C 146.777344 139.828125 146.6875 140.957031 146.359375 141.148438 C 144.167969 142.4375 144.339844 145.207031 142.691406 146.765625 C 140.859375 148.503906 140.878906 150.832031 140.488281 153.046875 C 140.4375 153.328125 140.449219 153.519531 140.613281 153.734375 C 141.839844 155.347656 141.96875 157.371094 142.589844 159.207031 C 142.789062 159.796875 143.007812 160.128906 143.476562 160.464844 C 144.359375 161.097656 144.335938 162.28125 144.460938 163.101562 C 144.78125 165.167969 145.429688 166.5 147.40625 167.683594 C 149.480469 168.929688 151.554688 170.511719 152.773438 172.933594 C 153.265625 173.914062 154.644531 174.628906 155.773438 175.066406 C 158.429688 176.089844 160.292969 178.0625 162.21875 179.980469 C 163.074219 180.835938 163.9375 181.457031 165.160156 181.859375 C 166.984375 182.457031 168.566406 183.566406 169.671875 185.351562 C 170.289062 186.347656 171.445312 187.089844 172.6875 187.398438 C 173.011719 187.476562 173.421875 187.511719 173.476562 187.792969 C 173.859375 189.785156 175.847656 189.941406 177.054688 190.972656 C 177.960938 191.75 179.277344 192.140625 179.359375 193.640625 C 179.371094 193.859375 179.539062 194.164062 179.722656 194.261719 C 182.34375 195.660156 184.589844 197.746094 187.546875 198.542969 C 191.171875 199.519531 193.324219 198.867188 195.515625 195.921875 C 196.46875 194.636719 197.535156 193.398438 198.863281 192.621094 C 199.898438 192.015625 201.246094 191.816406 202.503906 191.554688 C 204.082031 191.230469 204 193.375 205.289062 192.800781 Z M 136.300781 116.9375 C 136.566406 115.613281 137.714844 114.609375 137.921875 113.214844 C 138.605469 113.371094 138.351562 112.828125 138.441406 112.527344 C 138.875 111.011719 139.582031 109.941406 141.113281 109.023438 C 142.269531 108.328125 143.621094 107.414062 144.726562 107.085938 C 147.027344 106.402344 149.339844 105.378906 151.902344 105.578125 C 153.609375 105.710938 155.300781 105.683594 156.925781 106.339844 C 157.359375 106.515625 157.855469 106.628906 158.378906 106.386719 C 159.886719 105.6875 160.183594 106.195312 159.625 107.644531 C 159.5 107.976562 159.722656 108.441406 159.785156 108.847656 C 160.097656 108.71875 160.53125 108.917969 160.675781 108.355469 C 160.789062 107.933594 161.421875 108.222656 161.414062 108.28125 C 161.316406 109.40625 163.027344 109.691406 162.796875 111.027344 C 163.054688 110.703125 163.3125 110.382812 163.597656 110.027344 C 163.941406 110.578125 163.773438 111.214844 163.523438 111.328125 C 162.402344 111.820312 162.515625 112.914062 162.40625 113.726562 C 162.058594 116.289062 159.917969 117.832031 159.039062 120.046875 C 158.390625 121.675781 156.804688 122.117188 155.671875 123.125 C 153.539062 125.019531 151.234375 123.128906 149.003906 123.210938 C 147.5 123.265625 145.898438 122.90625 144.335938 122.761719 C 141.839844 122.53125 139.464844 121.429688 137.785156 119.40625 C 137.1875 118.679688 136.082031 118.039062 136.300781 116.9375 Z M 241.132812 155.515625 C 240.742188 156.507812 240.519531 157.527344 240.285156 158.570312 C 239.546875 161.878906 237.785156 164.53125 234.457031 165.820312 C 234.125 165.949219 233.605469 166.035156 233.363281 165.867188 C 232.207031 165.074219 231.113281 164.570312 229.957031 165.839844 C 229.894531 165.90625 229.632812 165.914062 229.601562 165.863281 C 228.511719 164.109375 227.488281 165.640625 226.453125 165.925781 C 225.527344 166.183594 224.589844 166.75 223.855469 165.589844 C 222.609375 166.953125 221.292969 165.558594 220 165.65625 C 218.429688 165.773438 216.84375 165.566406 215.757812 164.160156 C 215.933594 163.667969 216.492188 163.742188 216.910156 163.363281 C 216.117188 163.125 215.222656 163.214844 214.773438 162.265625 C 216.171875 161.761719 216.121094 160.328125 216.628906 159.242188 C 217.78125 156.757812 219.441406 154.890625 221.851562 153.4375 C 224.136719 152.058594 226.734375 151.554688 229.023438 150.269531 C 229.457031 150.027344 230.125 150.199219 230.6875 150.207031 C 230.996094 150.207031 231.417969 150.40625 231.601562 150.265625 C 234.78125 147.851562 237.367188 150.75 240.191406 151.28125 C 241.269531 151.484375 241.703125 154.066406 241.132812 155.515625 Z M 168.015625 164.507812 C 167.605469 163.949219 167.199219 162.832031 167.640625 162.59375 C 169.132812 161.785156 169.242188 160.148438 170.160156 159.019531 C 171.503906 157.359375 173.5 156.667969 175.265625 155.957031 C 176.867188 155.316406 177.679688 153.527344 179.652344 153.523438 C 181.199219 153.515625 182.742188 153 184.375 152.695312 C 184.417969 153.480469 186.429688 152.03125 185.75 153.863281 C 186.484375 154.097656 187.1875 154.070312 187.949219 153.84375 C 189.160156 153.480469 190.289062 153.707031 190.507812 155.167969 C 190.636719 156.007812 191.285156 155.824219 191.550781 155.761719 C 193.328125 155.367188 193.375 156.363281 193.375 157.691406 C 193.371094 159.539062 192.476562 161.042969 191.28125 162.136719 C 189.660156 163.609375 188.542969 165.917969 185.976562 166.097656 C 184.40625 166.207031 182.449219 166.9375 181.382812 166.519531 C 178.164062 165.261719 174.78125 167.324219 171.726562 165.621094 C 171.535156 165.515625 171.148438 165.78125 170.847656 165.839844 C 170.285156 165.949219 169.75 166.152344 170.195312 165.144531 C 170.457031 164.550781 169.660156 164.648438 169.316406 164.46875 C 168.914062 165.453125 168.347656 164.957031 168.015625 164.507812 Z M 168.015625 164.507812 "/>
</g>
</svg>
